<svg xmlns="http://www.w3.org/2000/svg" width="337.363" height="153.682" viewBox="0 0 337.363 153.682">
  <g id="Grupo_15044" data-name="Grupo 15044" transform="translate(-938 -111.448)">
    <path id="Icon_awesome-address-book" data-name="Icon awesome-address-book" d="M100.561,36.9a2.776,2.776,0,0,0,2.768-2.768V24.91a2.776,2.776,0,0,0-2.768-2.768H95.948V11.071A11.074,11.074,0,0,0,84.877,0H11.071A11.074,11.074,0,0,0,0,11.071v95.948A11.074,11.074,0,0,0,11.071,118.09H84.877a11.074,11.074,0,0,0,11.071-11.071V95.948h4.613a2.776,2.776,0,0,0,2.768-2.768V83.955a2.776,2.776,0,0,0-2.768-2.768H95.948V66.426h4.613a2.776,2.776,0,0,0,2.768-2.768V54.432a2.776,2.776,0,0,0-2.768-2.768H95.948V36.9ZM47.974,29.523A14.761,14.761,0,1,1,33.213,44.284,14.775,14.775,0,0,1,47.974,29.523ZM73.806,84.139c0,2.445-2.306,4.428-5.166,4.428H27.308c-2.86,0-5.166-1.984-5.166-4.428V79.711c0-7.335,6.942-13.285,15.5-13.285h1.153a23.757,23.757,0,0,0,18.359,0h1.153c8.557,0,15.5,5.951,15.5,13.285Z" transform="translate(939 134.91)" fill="none" stroke="#001964" stroke-width="2"/>
    <path id="Icon_ionic-ios-call" data-name="Icon ionic-ios-call" d="M96.789,78.918c-3.637-3.637-12.371-9.105-16.676-11.159-5-2.4-6.829-2.351-10.367.2-2.944,2.128-4.849,4.107-8.239,3.365-3.39-.718-10.07-5.79-16.553-12.247-6.482-6.482-11.53-13.163-12.247-16.553-.718-3.414,1.262-5.295,3.365-8.239,2.548-3.538,2.623-5.369.2-10.367-2.054-4.33-7.5-13.039-11.159-16.676C21.474,3.6,20.657,4.395,18.653,5.112A36.747,36.747,0,0,0,12.74,8.255c-3.637,2.425-5.666,4.454-7.1,7.5-1.41,3.043-3.043,8.709,5.27,23.505a131.156,131.156,0,0,0,23.06,30.755h0l.025.025.025.025h0A131.668,131.668,0,0,0,64.773,93.12c14.8,8.313,20.462,6.68,23.505,5.27s5.072-3.439,7.5-7.1a36.748,36.748,0,0,0,3.142-5.913C99.634,83.372,100.451,82.555,96.789,78.918Z" transform="translate(1052.073 107.919)" fill="none" stroke="#001964" stroke-width="2"/>
    <path id="Icon_ionic-md-mail" data-name="Icon ionic-md-mail" d="M92.718,5.625H11.773A9.551,9.551,0,0,0,2.25,15.148V74.666a9.551,9.551,0,0,0,9.523,9.523H92.718a9.551,9.551,0,0,0,9.523-9.523V15.148A9.551,9.551,0,0,0,92.718,5.625Zm-1.19,20.236L52.246,52.049,12.963,25.861V16.338L52.246,42.526,91.528,16.338Z" transform="translate(1172.122 179.94)" fill="none" stroke="#001964" stroke-width="2"/>
  </g>
</svg>
